<?xml version="1.0" encoding="iso-8859-1"?>
<!-- Generator: Adobe Illustrator 19.0.0, SVG Export Plug-In . SVG Version: 6.00 Build 0)  -->
<svg version="1.1" id="Capa_1" xmlns="http://www.w3.org/2000/svg" xmlns:xlink="http://www.w3.org/1999/xlink" x="0px" y="0px"
	 viewBox="0 0 512 512" style="enable-background:new 0 0 512 512;" xml:space="preserve">
<path style="fill:#72D8FF;" d="M380.936,35.667h-65.204c-66.862,0-121.064,54.202-121.064,121.064l0,0
	c0,66.862,54.202,121.064,121.064,121.064h65.204c13.436,0,26.359-2.193,38.435-6.233l36.765,36.739v-56.694
	C484.077,229.43,502,195.176,502,156.731l0,0C502,89.869,447.798,35.667,380.936,35.667z"/>
<path style="fill:#ADE5FF;" d="M286,157H70c-33.137,0-60,26.863-60,60v154c0,33.137,26.863,60,60,60h64.979l-0.901,0.078L178,475
	l0.031-44H286c33.137,0,60-26.863,60-60V217C346,183.863,319.137,157,286,157z"/>
<path d="M380.936,27h-65.205c-34.431,0-66.955,13.249-91.581,37.305c-22.721,22.196-36.399,51.32-39.015,82.695H70
	c-38.598,0-70,31.402-70,70v154c0,38.598,31.402,70,70,70h59.858l41.071,41.071c1.913,1.913,4.471,2.929,7.073,2.929
	c1.287,0,2.585-0.249,3.822-0.76c3.736-1.546,6.173-5.19,6.176-9.233L188.024,441H286c38.598,0,70-31.402,70-70v-81.871h24.936
	c12.116,0,24.071-1.648,35.623-4.906l32.508,32.485c1.913,1.911,4.469,2.927,7.071,2.927c1.289,0,2.588-0.25,3.826-0.762
	c3.736-1.548,6.171-5.194,6.171-9.238v-51.979C495.348,232.68,512,196.659,512,158.064C512,85.795,453.205,27,380.936,27z M336,371
	c0,27.57-22.43,50-50,50H178.031c-5.52,0-9.996,4.473-10,9.993l-0.014,19.882l-23.867-23.867c-1.545-3.547-5.081-6.008-9.171-6.008
	H70c-27.57,0-50-22.43-50-50V217c0-27.57,22.43-50,50-50h216c27.57,0,50,22.43,50,50V371z M449.918,245.107
	c-2.39,1.897-3.783,4.782-3.783,7.833v32.564l-19.696-19.682c-2.68-2.678-6.646-3.612-10.241-2.41
	c-11.338,3.793-23.202,5.717-35.262,5.717H356V217c0-38.598-31.402-70-70-70h-80.781c5.619-55.85,53.551-100,110.512-100h65.205
	C442.177,47,492,96.823,492,158.065C492,192.156,476.662,223.882,449.918,245.107z"/>
<path d="M452.658,113.459C436.53,84.802,406.103,67,373.25,67h-43.661c-5.523,0-10,4.477-10,10s4.477,10,10,10h43.661
	c25.64,0,49.389,13.897,61.979,36.268c1.836,3.263,5.229,5.098,8.724,5.098c1.661,0,3.345-0.415,4.895-1.287
	C453.661,124.369,455.367,118.272,452.658,113.459z"/>
<path d="M454.314,147.986c-0.009,0-0.019,0-0.027,0c-5.512,0.015-9.973,4.566-9.973,10.079c0,0.036,0,0.072,0,0.108
	c0.059,5.485,4.525,9.97,10,9.97c0.027,0,0.054,0,0.081,0c5.512-0.045,9.949-4.62,9.919-10.132
	C464.285,152.507,459.814,147.986,454.314,147.986z"/>
<g>
</g>
<g>
</g>
<g>
</g>
<g>
</g>
<g>
</g>
<g>
</g>
<g>
</g>
<g>
</g>
<g>
</g>
<g>
</g>
<g>
</g>
<g>
</g>
<g>
</g>
<g>
</g>
<g>
</g>
</svg>
