<?xml version="1.0" encoding="iso-8859-1"?>
<!-- Generator: Adobe Illustrator 19.0.0, SVG Export Plug-In . SVG Version: 6.00 Build 0)  -->
<svg version="1.1" id="Capa_1" xmlns="http://www.w3.org/2000/svg" xmlns:xlink="http://www.w3.org/1999/xlink" x="0px" y="0px"
	 viewBox="0 0 512 512" style="enable-background:new 0 0 512 512;" xml:space="preserve">
<path style="fill:#2E9DE3;" d="M448,54c0-24.3-19.699-44-44-44l0,0l0,0c-24.301,0-44,19.699-44,44v47h88V54z"/>
<g>
	<path style="fill:#FFFFFF;" d="M360,101V54c0-24.3,19.699-44,44-44H54c-24.301,0-44,19.699-44,44v438c0,5.523,4.477,10,10,10h330
		c5.523,0,10-4.477,10-10v-64V101z"/>
	<path style="fill:#FFFFFF;" d="M407.567,10H404c1.196,0,2.377,0.061,3.549,0.155L407.567,10z"/>
</g>
<path style="fill:#FFB954;" d="M482,188H166c-11.046,0-20,8.954-20,20v200c0,11.046,8.954,20,20,20h316c11.046,0,20-8.954,20-20V208
	C502,196.954,493.046,188,482,188z"/>
<path style="fill:#FFFFFF;" d="M228,230L228,230c15.464,0,28,12.536,28,28l0,0c0,15.464-12.536,28-28,28l0,0
	c-15.464,0-28-12.536-28-28l0,0C200,242.536,212.536,230,228,230z"/>
<path d="M482,178H370v-67h78c5.522,0,10-4.477,10-10V54c0-27.665-20.916-50.525-47.762-53.628C409.387,0.136,408.494,0,407.567,0H54
	C24.225,0,0,24.224,0,54v438c0,11.028,8.972,20,20,20h330c11.028,0,20-8.972,20-20v-54h112c16.542,0,30-13.458,30-30V208
	C512,191.458,498.542,178,482,178z M438,54v37h-68V54c0-18.748,15.252-34,34-34S438,35.252,438,54z M350,492H20V54
	c0-18.748,15.252-34,34-34h308.087C354.537,29.29,350,41.123,350,54v124H166c-11.503,0-21.509,6.511-26.541,16.038H63.987
	c-5.522,0-10,4.477-10,10s4.478,10,10,10H136v40.991H63.987c-5.522,0-10,4.477-10,10s4.478,10,10,10H136v40.99H63.987
	c-5.522,0-10,4.477-10,10s4.478,10,10,10H136v40.991H63.987c-5.522,0-10,4.477-10,10s4.478,10,10,10H136V408
	c0,16.542,13.458,30,30,30h184V492z M492,408c0,5.514-4.486,10-10,10H166c-5.514,0-10-4.486-10-10V208c0-5.514,4.486-10,10-10h316
	c5.514,0,10,4.486,10,10V408z"/>
<path d="M228,220c-20.953,0-38,17.047-38,38s17.047,38,38,38s38-17.047,38-38S248.953,220,228,220z M228,276
	c-9.925,0-18-8.075-18-18s8.075-18,18-18s18,8.075,18,18C246,267.925,237.925,276,228,276z"/>
<path d="M449.063,291.02H320.956c-5.522,0-10,4.477-10,10s4.478,10,10,10h128.107c5.522,0,10-4.477,10-10
	S454.586,291.02,449.063,291.02z"/>
<path d="M320.96,339.02c-2.641,0-5.21,1.07-7.07,2.93c-1.87,1.86-2.93,4.44-2.93,7.07s1.06,5.21,2.93,7.07
	c1.86,1.86,4.43,2.93,7.07,2.93c2.63,0,5.2-1.07,7.069-2.93c1.86-1.86,2.931-4.44,2.931-7.07s-1.07-5.21-2.931-7.07
	C326.16,340.09,323.59,339.02,320.96,339.02z"/>
<path d="M449.063,339.02h-90.127c-5.522,0-10,4.477-10,10s4.478,10,10,10h90.127c5.522,0,10-4.477,10-10
	S454.586,339.02,449.063,339.02z"/>
<path d="M63.987,153.047H312.26c5.522,0,10-4.477,10-10s-4.478-10-10-10H63.987c-5.522,0-10,4.477-10,10
	S58.465,153.047,63.987,153.047z"/>
<path d="M63.987,93.047H203.26c5.522,0,10-4.477,10-10s-4.478-10-10-10H63.987c-5.522,0-10,4.477-10,10S58.465,93.047,63.987,93.047
	z"/>
<path d="M244.261,93.047h0.185c5.522,0,10-4.477,10-10s-4.478-10-10-10h-0.185c-5.522,0-10,4.477-10,10
	S238.738,93.047,244.261,93.047z"/>
<g>
</g>
<g>
</g>
<g>
</g>
<g>
</g>
<g>
</g>
<g>
</g>
<g>
</g>
<g>
</g>
<g>
</g>
<g>
</g>
<g>
</g>
<g>
</g>
<g>
</g>
<g>
</g>
<g>
</g>
</svg>
