<?xml version="1.0" encoding="UTF-8" standalone="no"?>
<svg
   xmlns:dc="http://purl.org/dc/elements/1.1/"
   xmlns:cc="http://creativecommons.org/ns#"
   xmlns:rdf="http://www.w3.org/1999/02/22-rdf-syntax-ns#"
   xmlns:svg="http://www.w3.org/2000/svg"
   xmlns="http://www.w3.org/2000/svg"
   height="711.95801"
   width="792.83301"
   xml:space="preserve"
   viewBox="0 0 792.833 711.95801"
   y="0px"
   x="0px"
   id="Режим_изоляции"
   version="1.1"><metadata
   id="metadata304"><rdf:RDF><cc:Work
       rdf:about=""><dc:format>image/svg+xml</dc:format><dc:type
         rdf:resource="http://purl.org/dc/dcmitype/StillImage" /><dc:title></dc:title></cc:Work></rdf:RDF></metadata><defs
   id="defs302" />
<g
   transform="translate(-143.5,-85.509)"
   id="g297">
	<path
   id="path2"
   d="M 936.333,789.382 H 143.5 v -9.095 h 792.833 z m -24.667,-9.094 v -8.084 H 170.693 v 8.084 z m 9.997,17.179 v -8.085 H 157.781 v 8.085 z"
   style="clip-rule:evenodd;opacity:0.42000002;fill:#d3ded3;fill-rule:evenodd" />
	<g
   id="g12">
		<g
   id="g6">
			<path
   id="path4"
   d="m 527.607,508.433 c -1.218,0 -2.402,-0.628 -3.062,-1.755 L 495.567,457.12 c -0.988,-1.689 -0.419,-3.859 1.271,-4.847 1.689,-0.988 3.859,-0.419 4.847,1.27 l 28.978,49.558 c 0.988,1.689 0.419,3.859 -1.27,4.847 -0.563,0.329 -1.179,0.485 -1.786,0.485 z"
   style="fill:#878787" />
		</g>
		<g
   id="g10">
			<path
   id="path8"
   d="m 460.565,475.503 c -0.721,0 -1.451,-0.184 -2.12,-0.569 -2.034,-1.174 -2.732,-3.773 -1.56,-5.808 9.337,-16.189 44.666,-29.493 85.914,-32.356 2.333,-0.157 4.373,1.605 4.536,3.948 0.162,2.342 -1.606,4.373 -3.948,4.536 -42.569,2.954 -72.544,16.693 -79.135,28.12 -0.788,1.366 -2.218,2.129 -3.687,2.129 z"
   style="fill:#878787" />
		</g>
	</g>
	<path
   id="path14"
   d="m 557.358,294.963 c 2.242,-35.036 2.043,-50.434 26.638,-60.468 30.57,-13.065 77.588,-12.464 105.717,-7.723 21.908,3.692 29.25,10.501 31.51,22.012 8.302,42.301 -7.031,74.367 -6.781,122.693 0.134,26.057 4.69,49.059 0.12,77.757 -8.012,50.308 -78.751,70.596 -121.521,56.497 -24.544,-8.09 -44.186,-32.232 -46.9,-68.432 -2.295,-30.613 6.266,-64.923 11.217,-142.336 z"
   style="clip-rule:evenodd;fill:#878787;fill-rule:evenodd" />
	<path
   id="path16"
   d="m 546.648,294.963 c 2.242,-35.036 2.044,-50.434 26.638,-60.468 30.569,-13.065 77.588,-12.464 105.717,-7.723 21.908,3.692 29.25,10.501 31.51,22.012 8.302,42.301 -7.031,74.367 -6.781,122.693 0.134,26.057 4.69,49.059 0.12,77.757 -8.013,50.308 -78.751,70.596 -121.522,56.497 -24.544,-8.09 -44.186,-32.232 -46.9,-68.432 -2.294,-30.613 6.268,-64.923 11.218,-142.336 z"
   style="clip-rule:evenodd;fill:#444849;fill-rule:evenodd" />
	<path
   id="path18"
   d="m 651.288,525.283 c 35.829,-9.568 44.668,11.847 62.403,4.943 8.359,-3.256 12.356,-10.623 10.504,-17.974 -3.596,-14.264 -19.43,-21.12 -33.583,-21.853 -34.997,-1.816 -64.86,22.573 -100.048,16.104 -12.029,-2.211 -21.25,-7.139 -30.354,-10.231 -19.759,-6.701 -42.123,-6.033 -61.8,1.656 -11.14,4.352 -19.02,11.453 -19.538,21.34 -0.812,15.607 27.935,21.993 53.11,23.138 46.662,2.127 74.353,-5.114 119.306,-17.123 z"
   style="clip-rule:evenodd;fill:#878787;fill-rule:evenodd" />
	<path
   id="path20"
   d="m 703.467,525.565 c -8.609,16.325 -41.841,28.295 -70.112,28.295 -28.268,0 -60.043,-5.479 -87.738,-12.742 30.199,-4.439 74.262,-16.888 100.262,-23.204 34.103,-8.29 46.866,8.348 57.588,7.651 z"
   style="clip-rule:evenodd;fill:#878787;fill-rule:evenodd" />
	<path
   id="path22"
   d="m 644.72,529.471 c 35.838,-9.57 49.267,3.233 60.369,0.263 8.669,-2.318 11.62,-10.125 9.761,-17.479 -3.602,-14.272 -24.716,-18.87 -37.28,-18.739 -34.652,0.36 -56.825,17 -92.02,10.538 -21.678,-3.994 -30.105,-6.544 -54.276,-6.523 -17.781,0.013 -55.939,5.751 -53.76,26.381 2.149,20.357 38.354,22.308 52.053,22.943 12.675,0.585 23.347,0.556 32.557,0.051 40.225,-2.204 52.901,-9.504 82.596,-17.435 z"
   style="clip-rule:evenodd;fill:#444849;fill-rule:evenodd" />
	<g
   id="g26">
		<path
   id="path24"
   d="m 525.201,771.203 c -0.171,0 -0.345,-0.015 -0.518,-0.043 -1.655,-0.274 -2.794,-1.791 -2.62,-3.438 0.043,-0.783 0.1,-5.999 0.146,-10.203 0.138,-12.697 0.168,-12.838 0.28,-13.359 1.327,-6.143 4.308,-12.683 17.022,-18.908 7.647,-3.744 19.045,-7.227 31.112,-10.913 17.336,-5.296 36.984,-11.298 48.462,-19.095 1.068,-0.727 2.473,-0.727 3.541,0 11.478,7.797 31.127,13.799 48.463,19.095 12.067,3.687 23.466,7.169 31.112,10.913 12.685,6.212 15.669,12.717 17.004,18.822 0.117,0.535 0.148,0.679 0.294,13.495 0.05,4.395 0.106,9.369 0.15,10.147 0.178,1.649 -0.963,3.17 -2.621,3.443 -1.703,0.279 -3.339,-0.878 -3.622,-2.597 -0.074,-0.451 -0.097,-0.938 -0.21,-10.923 -0.054,-4.748 -0.127,-11.183 -0.191,-12.411 -0.945,-4.207 -2.943,-9.11 -13.575,-14.317 -7.196,-3.523 -18.361,-6.934 -30.183,-10.545 -10.63,-3.248 -22.108,-6.755 -32.243,-10.833 6.523,5.648 13.226,11.475 17.273,16.594 4.948,6.264 6.09,12.477 6.585,18.259 0.036,0.421 0.054,2.766 0.103,13.205 0.021,4.589 0.045,9.79 0.063,10.306 0.063,1.723 -1.269,3.195 -2.991,3.282 -1.688,0.07 -3.191,-1.208 -3.302,-2.929 -0.023,-0.374 -0.037,-2.602 -0.073,-10.63 -0.025,-5.4 -0.057,-12.12 -0.085,-12.777 -0.471,-5.469 -1.545,-10.125 -5.245,-14.808 -3.734,-4.725 -10.34,-10.444 -16.728,-15.975 -4.313,-3.735 -8.438,-7.307 -11.693,-10.565 -3.866,4.045 -8.696,8.171 -13.394,12.185 -5.735,4.9 -11.666,9.967 -15.134,14.354 -3.7,4.681 -4.775,9.335 -5.251,14.884 -0.023,0.579 -0.055,7.285 -0.079,12.674 -0.037,8.05 -0.051,10.283 -0.075,10.66 -0.111,1.736 -1.599,3.051 -3.348,2.941 -1.724,-0.111 -3.034,-1.589 -2.944,-3.309 0.019,-0.568 0.043,-5.749 0.065,-10.322 0.048,-10.424 0.066,-12.766 0.102,-13.185 0.495,-5.778 1.636,-11.99 6.585,-18.252 3.85,-4.871 9.745,-9.907 15.985,-15.238 0.616,-0.526 1.234,-1.055 1.853,-1.585 -10.271,4.177 -21.982,7.754 -32.81,11.063 -11.821,3.611 -22.987,7.021 -30.183,10.545 -10.654,5.218 -12.65,10.152 -13.591,14.385 -0.06,1.22 -0.13,7.59 -0.182,12.292 -0.109,10.045 -0.131,10.532 -0.204,10.978 -0.255,1.543 -1.591,2.638 -3.105,2.638 z m 3.461,-25.767 c -0.004,0.017 -0.007,0.033 -0.011,0.05 0.004,-0.014 0.008,-0.031 0.011,-0.05 z m 184.374,-0.075 c 0.005,0.024 0.01,0.044 0.014,0.06 -0.006,-0.019 -0.01,-0.04 -0.014,-0.06 z"
   style="fill:#878787" />
	</g>
	<path
   id="path28"
   d="m 581.028,781.853 c 5.289,0 9.603,-4.314 9.603,-9.603 0,-5.289 -4.314,-9.602 -9.603,-9.602 -5.289,0 -9.602,4.313 -9.602,9.602 0,5.289 4.313,9.603 9.602,9.603 z"
   style="clip-rule:evenodd;fill:#878787;fill-rule:evenodd" />
	<path
   id="path30"
   d="m 661.809,781.853 c 5.289,0 9.603,-4.314 9.603,-9.603 0,-5.289 -4.314,-9.602 -9.603,-9.602 -5.289,0 -9.602,4.313 -9.602,9.602 0,5.289 4.313,9.603 9.602,9.603 z"
   style="clip-rule:evenodd;fill:#878787;fill-rule:evenodd" />
	<path
   id="path32"
   d="m 720.604,781.853 c 5.289,0 9.603,-4.314 9.603,-9.603 0,-5.289 -4.314,-9.602 -9.603,-9.602 -5.289,0 -9.602,4.313 -9.602,9.602 0,5.289 4.313,9.603 9.602,9.603 z"
   style="clip-rule:evenodd;fill:#878787;fill-rule:evenodd" />
	<rect
   id="rect34"
   height="155.144"
   width="17"
   style="clip-rule:evenodd;fill:#878787;fill-rule:evenodd"
   y="550.01801"
   x="612.66199" />
	<rect
   id="rect36"
   height="44.394001"
   width="27.066"
   style="clip-rule:evenodd;fill:#878787;fill-rule:evenodd"
   y="550.01801"
   x="607.62799" />
	<rect
   id="rect38"
   height="31.040001"
   width="27.066"
   style="clip-rule:evenodd;fill:#878787;fill-rule:evenodd"
   y="678.53003"
   x="607.62799" />
	<g
   id="g72">
		<path
   id="path40"
   d="m 820.174,406.547 c 5.148,-9.525 11.043,-25.283 10.346,-35.085 -8.489,-4.595 -21.241,-2.609 -30.635,-1.682 -13.399,1.322 -25.045,8.359 -32.181,20.547 -2.729,4.663 -4.752,10.08 -6.023,16.22 z"
   style="clip-rule:evenodd;fill:#a2abbd;fill-rule:evenodd" />
		<path
   id="path42"
   d="m 786.879,374.16 c -5.847,4.938 -7.66,15.582 -0.323,20.447 2.718,-2.653 5.435,-5.306 8.153,-7.959 -2.589,-3.946 -5.241,-8.541 -7.83,-12.488 z"
   style="clip-rule:evenodd;fill:#677278;fill-rule:evenodd" />
		<g
   id="g66">
			<path
   id="path44"
   d="m 831.358,308.405 c -2.289,-1.956 -3.744,-2.77 -4.709,-3.146 -2.396,4.262 -15.384,32.91 -22.482,51.47 l -11.941,31.223 c 1.077,0.321 3.432,0.418 6.064,-0.522 l -0.165,0.018 c 1.599,-0.674 4.048,-3.277 5.226,-6.335 z"
   style="clip-rule:evenodd;fill:#a2abbd;fill-rule:evenodd" />
			<path
   id="path46"
   d="m 787.31,372.802 c 3.731,-10.126 7.549,-20.472 11.451,-31.055 3.994,-10.834 8.079,-21.921 12.264,-33.266 0.444,-1.204 2.246,-2.297 4.345,-3.093 2.158,-0.817 4.651,-1.348 6.326,-1.325 1.676,0.022 3.941,0.646 5.687,1.599 1.782,0.973 3.006,2.3 2.478,3.654 -4.967,12.79 -9.805,25.237 -14.512,37.359 -4.591,11.823 -9.065,23.339 -13.429,34.573 -0.639,1.482 -1.455,2.77 -2.374,3.813 -0.004,-10e-4 -0.007,-0.004 -0.012,-0.007 -1.386,1.565 -2.994,2.566 -4.616,2.923 -1.59,0.35 -3.206,0.074 -4.611,-0.876 -1.405,-0.951 -2.42,-2.416 -3.067,-4.186 -0.634,-1.734 -0.9,-3.774 -0.757,-5.894 -0.003,-0.001 -0.004,-0.003 -0.007,-0.005 0.097,-1.39 0.369,-2.821 0.834,-4.214 z"
   style="clip-rule:evenodd;fill:#b5c0d6;fill-rule:evenodd" />
			<path
   id="path48"
   d="m 820.4,307.491 c -2.151,-0.072 -4.363,1.386 -5.055,3.233 -0.691,1.847 0.36,3.467 2.46,3.635 2.1,0.168 4.492,-1.243 5.235,-3.189 0.743,-1.946 -0.489,-3.606 -2.64,-3.679 z"
   style="clip-rule:evenodd;fill:#a2abbd;fill-rule:evenodd" />
			<path
   id="path50"
   d="m 806.556,344.121 c -1.138,-0.335 -2.554,-1.195 -3.6,-2.19 -1.024,-0.974 -1.688,-2.096 -1.357,-2.987 8.714,-23.51 -1.484,4.002 7.154,-19.308 0.345,-0.931 1.732,-1.686 3.342,-2.187 1.644,-0.511 3.53,-0.768 4.787,-0.649 1.257,0.119 2.94,0.75 4.219,1.594 1.305,0.862 2.193,1.954 1.798,2.978 -9.839,25.485 1.781,-4.609 -8.152,21.119 -0.378,0.981 -1.884,1.568 -3.571,1.815 -1.65,0.244 -3.482,0.15 -4.62,-0.185 z"
   style="clip-rule:evenodd;fill:#677278;fill-rule:evenodd" />
			<path
   id="path52"
   d="m 819.03,323.324 c -1.489,-0.209 -2.952,-0.405 -4.385,-0.603 -1.407,-0.195 -2.788,-0.389 -4.144,-0.58 -0.818,-0.115 -1.873,0.849 -2.347,2.123 -1.323,3.558 -2.64,7.091 -3.94,10.594 -0.464,1.25 -0.213,2.426 0.561,2.622 1.281,0.324 2.587,0.657 3.916,0.993 1.353,0.343 2.732,0.693 4.139,1.047 0.876,0.22 2.023,-0.691 2.537,-2.027 1.453,-3.773 2.918,-7.582 4.394,-11.425 0.53,-1.377 0.196,-2.614 -0.731,-2.744 z"
   style="clip-rule:evenodd;fill:#e9e7e7;fill-rule:evenodd" />
			<path
   id="path54"
   d="m 806.919,354.793 c 0.699,0.258 0.936,1.359 0.516,2.451 -0.42,1.092 -1.329,1.747 -2.017,1.471 -0.688,-0.277 -0.902,-1.37 -0.493,-2.443 0.409,-1.073 1.295,-1.737 1.994,-1.479 z m -7.51,-2.789 c 0.627,0.233 0.827,1.262 0.439,2.302 -0.389,1.04 -1.214,1.678 -1.831,1.429 -0.617,-0.25 -0.799,-1.28 -0.42,-2.303 0.38,-1.024 1.186,-1.661 1.812,-1.428 z m 3.653,1.358 c 0.661,0.245 0.879,1.311 0.476,2.375 -0.404,1.063 -1.267,1.707 -1.919,1.445 -0.652,-0.262 -0.851,-1.317 -0.456,-2.367 0.395,-1.05 1.238,-1.698 1.899,-1.453 z m 1.593,7.348 c 0.682,0.286 0.911,1.389 0.497,2.468 -0.414,1.079 -1.306,1.707 -1.979,1.403 -0.673,-0.304 -0.879,-1.406 -0.476,-2.467 0.404,-1.061 1.276,-1.691 1.958,-1.404 z m -7.345,-3.081 c 0.614,0.258 0.807,1.3 0.422,2.324 -0.384,1.024 -1.193,1.633 -1.798,1.358 -0.605,-0.274 -0.78,-1.305 -0.405,-2.316 0.376,-1.011 1.168,-1.624 1.781,-1.366 z m 3.573,1.496 c 0.646,0.271 0.857,1.347 0.459,2.398 -0.398,1.051 -1.248,1.67 -1.886,1.38 -0.638,-0.288 -0.826,-1.355 -0.437,-2.389 0.39,-1.033 1.218,-1.66 1.864,-1.389 z m 1.571,7.331 c 0.667,0.313 0.888,1.434 0.479,2.501 -0.409,1.066 -1.284,1.655 -1.942,1.328 -0.658,-0.327 -0.858,-1.442 -0.458,-2.49 0.4,-1.049 1.254,-1.652 1.921,-1.339 z m -7.187,-3.356 c 0.6,0.278 0.786,1.332 0.407,2.344 -0.379,1.012 -1.174,1.589 -1.766,1.291 -0.592,-0.299 -0.761,-1.337 -0.39,-2.336 0.373,-1 1.149,-1.577 1.749,-1.299 z m 3.498,1.63 c 0.633,0.292 0.837,1.381 0.443,2.419 -0.394,1.038 -1.228,1.619 -1.851,1.309 -0.624,-0.309 -0.807,-1.389 -0.422,-2.41 0.383,-1.02 1.197,-1.61 1.83,-1.318 z m 1.518,7.396 c 0.653,0.34 0.868,1.461 0.464,2.514 -0.403,1.053 -1.265,1.616 -1.909,1.262 -0.644,-0.353 -0.834,-1.476 -0.44,-2.512 0.394,-1.035 1.232,-1.604 1.885,-1.264 z m -7.032,-3.636 c 0.588,0.307 0.769,1.364 0.393,2.364 -0.376,0.999 -1.156,1.548 -1.735,1.229 -0.58,-0.318 -0.742,-1.367 -0.375,-2.354 0.367,-0.988 1.13,-1.545 1.717,-1.239 z m 3.424,1.77 c 0.62,0.323 0.815,1.415 0.426,2.441 -0.388,1.026 -1.208,1.582 -1.818,1.246 -0.611,-0.335 -0.787,-1.43 -0.407,-2.439 0.38,-1.008 1.179,-1.57 1.799,-1.248 z"
   style="clip-rule:evenodd;fill:#677278;fill-rule:evenodd" />
			<path
   id="path56"
   d="m 807.057,342.791 c -1.667,-0.477 -3.74,1.254 -4.695,3.806 -0.955,2.552 -0.476,5.033 1.133,5.619 1.61,0.586 3.784,-1.045 4.798,-3.701 1.014,-2.656 0.431,-5.247 -1.236,-5.724 z"
   style="clip-rule:evenodd;fill:#677278;fill-rule:evenodd" />
			<path
   id="path58"
   d="m 806.318,344.751 c -0.974,-0.294 -2.21,0.711 -2.779,2.229 -0.569,1.518 -0.276,2.995 0.68,3.326 0.955,0.33 2.226,-0.648 2.816,-2.199 0.591,-1.55 0.258,-3.062 -0.717,-3.356 z"
   style="clip-rule:evenodd;fill:#e9e7e7;fill-rule:evenodd" />
			<path
   id="path60"
   d="m 812.452,346.866 c -0.451,-0.76 -1.646,0.04 -2.527,1.035 -0.958,1.081 -1.69,2.844 -0.868,3.736 0.822,0.893 2.13,-0.23 2.85,-1.959 0.44,-1.057 0.843,-2.311 0.545,-2.812 z m -11.94,-3.619 c 0.763,-0.349 1.091,0.833 1.089,2.025 -10e-4,1.307 -0.592,3.026 -1.701,3.221 -1.074,0.189 -1.251,-1.323 -0.698,-2.936 0.336,-0.979 0.818,-2.085 1.31,-2.31 z"
   style="clip-rule:evenodd;fill:#677278;fill-rule:evenodd" />
			<path
   id="path62"
   d="m 819.833,308.995 c -0.716,-0.031 -1.613,0.81 -2.012,1.873 -0.399,1.063 -0.16,1.958 0.547,2.004 0.707,0.047 1.619,-0.776 2.027,-1.855 0.408,-1.079 0.155,-1.992 -0.562,-2.022 z"
   style="clip-rule:evenodd;fill:#677278;fill-rule:evenodd" />
			<path
   id="path64"
   d="m 831.359,308.405 c 6.798,8.052 2.457,18.84 -0.807,27.086 l -15.528,39.247 c -4.041,10.214 -12.982,12.296 -16.899,12.711 1.599,-0.674 4.048,-3.278 5.225,-6.336 z"
   style="clip-rule:evenodd;fill:#677278;fill-rule:evenodd" />
		</g>
		<path
   id="path68"
   d="m 830.534,371.449 c -3.468,-0.001 -12.872,2.397 -16.244,3.471 -16.36,5.21 -31.253,15.387 -37.01,31.627 h 48.578 c 3.825,-8.374 8.423,-22.187 4.676,-35.098 z"
   style="clip-rule:evenodd;fill:#a2abbd;fill-rule:evenodd" />
		<path
   id="path70"
   d="m 830.835,371.449 c -2.718,-0.001 -10.089,2.397 -12.732,3.471 -12.822,5.21 -24.495,15.387 -29.007,31.627 h 38.073 c 2.999,-8.374 6.602,-22.187 3.666,-35.098 z"
   style="clip-rule:evenodd;fill:#677278;fill-rule:evenodd" />
	</g>
	<g
   id="g241">
		<g
   id="g86">
			<polygon
   id="polygon74"
   points="507.147,221.693 488.012,226.615 462.577,153.194 490.768,162.162 "
   style="clip-rule:evenodd;fill:#5d6b77;fill-rule:evenodd" />
			<polygon
   id="polygon76"
   points="485.1,229.294 488.053,226.617 462.579,153.186 458.957,155.234 "
   style="clip-rule:evenodd;fill:#4b4846;fill-rule:evenodd" />
			<polygon
   id="polygon78"
   points="485.118,229.26 505.138,223.971 507.129,221.684 488.032,226.548 "
   style="clip-rule:evenodd;fill:#4b4846;fill-rule:evenodd" />
			<polygon
   id="polygon80"
   points="471.088,166.162 490.459,169.941 502.113,214.039 488.175,216.48 "
   style="clip-rule:evenodd;fill:#a1a1a1;fill-rule:evenodd" />
			<polygon
   id="polygon82"
   points="499.279,221.362 494.711,222.386 493.727,218.134 498.491,217.425 "
   style="clip-rule:evenodd;fill:#999999;fill-rule:evenodd" />
			<path
   id="path84"
   d="m 480.063,162.427 c 1.109,0.242 2.008,1.108 2.008,1.934 0,0.826 -0.899,1.3 -2.008,1.058 -1.109,-0.242 -2.008,-1.108 -2.008,-1.934 0,-0.826 0.899,-1.3 2.008,-1.058 z"
   style="clip-rule:evenodd;fill:#999999;fill-rule:evenodd" />
		</g>
		<g
   id="g239">
			<linearGradient
   y2="189.9066"
   x2="487.75259"
   y1="200.64259"
   x1="485.96869"
   gradientUnits="userSpaceOnUse"
   id="SVGID_1_">
				<stop
   id="stop88"
   style="stop-color:#F9B776"
   offset="0" />
				<stop
   id="stop90"
   style="stop-color:#F7CF7A"
   offset="1" />
			</linearGradient>
			<path
   id="path93"
   d="m 465.003,181.067 -3.762,23.47 c 9.256,10.188 13.794,17.064 18.943,30.364 l 0.314,18.899 21.261,-2.441 -0.477,-17.323 1.973,-4.332 -0.13,-5.223 -17.948,4.732 -8.966,-25.135 5.985,-0.484 1.949,-2.791 0.026,-5.726 -2.677,-7.273 3.245,0.248 c 3.028,0.301 3.25,-0.953 3.333,-3.28 l -8.609,-3.578 -7.754,3.446 4.021,-8.466 c 0.807,-1.7 0.915,-3.455 -0.194,-4.083 l -2.1,-1.186 z m 35.399,10.521 2.226,0.711 1.142,3.819 -1.23,8.987 -1.714,-6.389 -1.571,-5.649 z"
   style="clip-rule:evenodd;fill:url(#SVGID_1_);fill-rule:evenodd" />
			<g
   id="g230">
				<path
   id="path95"
   d="m 535.926,539.218 -33.136,-1.089 -0.539,-9.227 26.039,-17.663 -53.759,17.72 -48.315,-5.372 -1.464,-10.793 C 437.142,501.599 528.98,463.557 556.31,455.03 l 0.984,-11.379 c 7.564,1.745 17.269,3.683 33.698,3.696 18.211,0.014 31.819,-0.821 65.643,-4.436 0.106,12.063 -0.367,34.263 -2.177,56.82 -9.887,7.695 -81.806,31.38 -118.532,39.487 z"
   style="clip-rule:evenodd;fill:#375e8c;fill-rule:evenodd" />
				<path
   id="path97"
   d="m 475.168,768.798 c -2.593,0.261 -10.19,0.158 -15.986,0.072 -7.368,-88.863 -24.391,-192.356 -34.391,-254.211 14.04,0 42.411,4.961 52.986,8.426 3.582,51.571 2.425,124.529 -2.609,245.713 z m 78.655,-240.056 c -3.369,94.844 -9.034,152.497 -25.009,240.507 0,0 -9.402,0.155 -14.686,-1.325 1.316,-27.738 -4.138,-138.848 -11.598,-235.05 12.75,-0.911 38.543,-3.22 51.293,-4.132 z"
   style="clip-rule:evenodd;fill:#375e8c;fill-rule:evenodd" />
				<path
   id="path99"
   d="m 457.554,764.903 c 0,0 -3.257,4.887 -8.755,8.55 -3.528,2.352 -9.221,0.602 -10.791,2.036 -2.037,3.259 -2.037,6.363 -2.037,6.363 l 25.12,-0.668 c 0.21,-0.907 0.659,-1.751 1.325,-2.418 0.935,-0.935 2.22,-1.467 3.543,-1.467 1.229,0 2.726,0.497 3.544,1.467 0.565,0.672 0.998,1.332 1.298,2.047 l 6.762,-0.276 0.273,-10.957 -1.627,-2.458 z"
   style="clip-rule:evenodd;fill:#403c39;fill-rule:evenodd" />
				<polygon
   id="polygon101"
   points="533.902,773.408 533.902,781.853 506.212,781.853 506.212,774.668 514.087,766.321 529.178,767.581 "
   style="clip-rule:evenodd;fill:#403c39;fill-rule:evenodd" />
				<g
   id="g105">
					<path
   id="path103"
   d="m 530.13,510.596 c -0.133,0 -0.264,-0.062 -0.347,-0.179 -0.136,-0.191 -0.091,-0.457 0.1,-0.593 2.929,-2.081 5.992,-4.163 9.366,-6.366 9.059,-5.913 18.606,-11.527 27.838,-16.957 5.206,-3.062 10.59,-6.228 15.739,-9.364 0.196,-0.121 0.461,-0.061 0.584,0.143 0.122,0.2 0.059,0.462 -0.143,0.584 -5.154,3.14 -10.54,6.308 -15.749,9.37 -9.224,5.425 -18.762,11.034 -27.805,16.938 -3.364,2.196 -6.419,4.272 -9.339,6.347 -0.072,0.052 -0.158,0.077 -0.244,0.077 z"
   style="fill:#004d84" />
				</g>
				<path
   id="path107"
   d="m 511.066,337.592 c 11.212,-3.969 28.845,-26.34 30.717,-25.342 1.477,13.132 7.975,94.322 8.743,123.435 -0.905,3.82 4.536,6.904 6.384,10.131 0,0 26.586,5.279 38.214,5.587 14.914,0.394 59.601,-8.586 59.601,-8.586 3.953,-1.436 8.396,-4.539 6.603,-15.039 -0.087,-7.251 -1.955,-17.574 -1.912,-21.596 12.017,0.541 48.101,-0.818 51.369,-5.594 2.671,-8.395 -2.513,-90.215 -21.205,-144.438 -27.607,-16.721 -72.275,-30.803 -92.697,-37.359 -20.361,10.6 -52.581,31.694 -68.286,43.775 -7.274,22.519 -12.989,53.602 -17.531,75.026 z m 155.065,-8.897 7.21,46.355 -9.987,-0.263 c 1.612,-23.676 2.214,-29.346 2.777,-46.092 z"
   style="clip-rule:evenodd;fill:#e6e6e7;fill-rule:evenodd" />
				<linearGradient
   y2="241.8129"
   x2="608.6131"
   y1="190.9218"
   x1="595.30243"
   gradientUnits="userSpaceOnUse"
   id="SVGID_2_">
					<stop
   id="stop109"
   style="stop-color:#EA9641"
   offset="0" />
					<stop
   id="stop111"
   style="stop-color:#F7CF7A"
   offset="1" />
				</linearGradient>
				<path
   id="path114"
   d="m 574.05,229.88 c 0,0 13.769,11.833 19.546,17.342 11.045,-8.129 24.423,-17.605 28.587,-22.127 -1.06,-17.352 -2.194,-59.999 -2.194,-59.999 l -40.955,9.921 z"
   style="clip-rule:evenodd;fill:url(#SVGID_2_);fill-rule:evenodd" />
				<polygon
   id="polygon116"
   points="587.357,445.588 602.237,425.197 597.167,264.703 589.917,264.511 577.055,428.416 "
   style="clip-rule:evenodd;fill:#a73831;fill-rule:evenodd" />
				<polygon
   id="polygon118"
   points="593.417,246.578 578.963,258.649 567.046,232.758 572.673,227.512 "
   style="clip-rule:evenodd;fill:#fafbfb;fill-rule:evenodd" />
				<polygon
   id="polygon120"
   points="593.509,246.558 608.779,257.797 631.477,228.224 625.049,222.214 "
   style="clip-rule:evenodd;fill:#fafbfb;fill-rule:evenodd" />
				<polygon
   id="polygon122"
   points="590.792,266.329 596.324,266.52 603.18,253.63 593.376,246.647 584.344,254.008 "
   style="clip-rule:evenodd;fill:#a73831;fill-rule:evenodd" />
				<polygon
   id="polygon124"
   points="615.72,304.789 645.814,305.325 645.814,311.961 615.72,311.425 "
   style="clip-rule:evenodd;fill:#fafbfb;fill-rule:evenodd" />
				<path
   id="path126"
   d="m 480.586,253.163 c -1.155,45.069 -5.264,98.081 -2.914,151.505 13.112,0.211 27.376,3.408 40.671,-12.36 9.331,-11.066 23.705,-41.935 27.995,-61.03 -0.42,-10.919 -3.045,-22.154 -4.095,-25.514 -9.135,5.565 -19.843,13.649 -28.033,22.364 -5.669,-35.383 -7.402,-52.497 -12.441,-75.911 -4.332,0.631 -15.198,0.474 -21.183,0.946 z"
   style="clip-rule:evenodd;fill:#e6e6e7;fill-rule:evenodd" />
				<polygon
   id="polygon128"
   points="661.01,406.209 664.159,375.026 610.849,371.876 610.061,397.075 "
   style="clip-rule:evenodd;fill:#e6e6e7;fill-rule:evenodd" />
				<polygon
   id="polygon130"
   points="507.728,271.016 475.967,272.216 477.851,247.719 504.966,249.369 "
   style="clip-rule:evenodd;fill:#fafbfb;fill-rule:evenodd" />
				<polygon
   id="polygon132"
   points="607.578,400.203 610.647,370.415 629.621,370.565 629.71,401.423 "
   style="clip-rule:evenodd;fill:#fafbfb;fill-rule:evenodd" />
				<g
   id="g136">
					<path
   id="path134"
   d="m 657.668,405.846 c -0.029,0 -0.06,-0.003 -0.09,-0.009 l -25.082,-5.4 c -0.229,-0.05 -0.375,-0.276 -0.326,-0.506 0.049,-0.229 0.27,-0.374 0.506,-0.326 l 25.082,5.4 c 0.229,0.05 0.375,0.276 0.326,0.506 -0.043,0.199 -0.219,0.335 -0.416,0.335 z m 4.997,-31.411 c -0.004,0 -0.007,0 -0.011,0 l -29.572,-0.767 c -0.235,-0.006 -0.42,-0.201 -0.414,-0.436 0.006,-0.236 0.177,-0.438 0.436,-0.414 l 29.572,0.767 c 0.235,0.006 0.42,0.201 0.414,0.436 -0.006,0.231 -0.195,0.414 -0.425,0.414 z M 520.05,361.856 c -0.202,0 -0.382,-0.146 -0.418,-0.353 l -5.513,-31.742 c -0.04,-0.232 0.115,-0.452 0.346,-0.492 0.233,-0.037 0.452,0.115 0.492,0.346 l 5.513,31.743 c 0.04,0.231 -0.115,0.452 -0.347,0.492 -0.024,0.004 -0.048,0.006 -0.073,0.006 z m 24.181,-22.886 c -0.005,0 -0.01,0 -0.016,0 -0.234,-0.009 -0.418,-0.205 -0.409,-0.44 l 0.935,-25.974 c 0.008,-0.229 0.197,-0.409 0.425,-0.409 0.005,0 0.01,0 0.016,0 0.234,0.009 0.418,0.205 0.409,0.441 l -0.935,25.974 c -0.008,0.228 -0.197,0.408 -0.425,0.408 z m 121.504,-10.518 c -0.197,0 -0.375,-0.138 -0.416,-0.338 l -3.85,-18.505 c -0.048,-0.23 0.1,-0.455 0.329,-0.503 0.239,-0.044 0.456,0.101 0.503,0.329 l 3.85,18.505 c 0.048,0.23 -0.1,0.455 -0.329,0.503 -0.03,0.007 -0.059,0.009 -0.087,0.009 z"
   style="fill:#c0c0c0" />
				</g>
				<path
   id="path138"
   d="m 556.446,445.142 c 7.455,1.706 18.881,2.845 31.365,3.077 26.933,0.5 58.711,-3.859 69.829,-6.913 0.107,2.099 0.211,5.28 0.219,7.556 -18.098,4.214 -45.197,6.747 -69.559,6.458 -11.649,-0.138 -23.395,-1.447 -32.022,-3.579 z"
   style="clip-rule:evenodd;fill:#665852;fill-rule:evenodd" />
				<polygon
   id="polygon140"
   points="592.787,447.365 579.415,447.05 579.1,455.782 592.905,456.57 "
   style="clip-rule:evenodd;fill:#b59d6d;fill-rule:evenodd" />
				<polygon
   id="polygon142"
   points="565.508,142.98 571.434,109.943 562.414,111.07 559.442,138.865 "
   style="clip-rule:evenodd;fill:#534548;fill-rule:evenodd" />
				<linearGradient
   y2="161.4666"
   x2="592.74652"
   y1="248.1219"
   x1="569.08649"
   gradientUnits="userSpaceOnUse"
   id="SVGID_3_">
					<stop
   id="stop144"
   style="stop-color:#F9B776"
   offset="0" />
					<stop
   id="stop146"
   style="stop-color:#F7CF7A"
   offset="1" />
				</linearGradient>
				<path
   id="path149"
   d="m 559.727,171.57 -0.689,27.614 -3.139,8.797 22.324,12.463 39.402,-14.492 c 0,0 6.889,-9.284 13.182,-51.821 -2.432,-36.612 -27.761,-62.52 -59.373,-44.187 -8.654,5.019 -14.54,52.077 -14.54,52.077 z"
   style="clip-rule:evenodd;fill:url(#SVGID_3_);fill-rule:evenodd" />
				<linearGradient
   y2="154.61819"
   x2="586.31677"
   y1="156.6525"
   x1="572.14893"
   gradientUnits="userSpaceOnUse"
   id="SVGID_4_">
					<stop
   id="stop151"
   style="stop-color:#ED9E30"
   offset="0" />
					<stop
   id="stop153"
   style="stop-color:#F7CF7A"
   offset="1" />
				</linearGradient>
				<path
   id="path156"
   d="m 582.445,139.345 c 0,0 -0.796,14.032 -2.167,17.344 -0.889,2.145 -2.883,2.289 -5.604,2.672 -2.611,-0.812 -0.689,7.35 -0.132,10.752 3.829,0.962 22.188,-1.161 22.188,-1.161 z"
   style="clip-rule:evenodd;fill:url(#SVGID_4_);fill-rule:evenodd" />
				<path
   id="path158"
   d="m 619.101,150.25 c -0.081,-0.024 -8.248,-2.403 -18.109,-2.103 l -0.031,-1.008 c 10.029,-0.304 18.343,2.12 18.426,2.145 z"
   style="clip-rule:evenodd;fill:#e1a979;fill-rule:evenodd" />
				<path
   id="path160"
   d="m 571.091,147.992 c -0.084,-0.005 -4.915,-0.185 -10.631,1.72 l -0.273,-0.971 c 6.328,-2.111 10.863,-1.761 10.949,-1.757 z"
   style="clip-rule:evenodd;fill:#e1a979;fill-rule:evenodd" />
				
					<rect
   id="rect162"
   height="8.7709999"
   width="1.008"
   style="clip-rule:evenodd;fill:#e1a979;fill-rule:evenodd"
   transform="matrix(0.381,-0.9246,0.9246,0.381,239.0436,662.395)"
   y="148.28999"
   x="613.70599" />
				<path
   id="path164"
   d="m 569.354,115.24 c -0.27,0.021 -0.552,-0.066 -0.768,-0.268 -5.936,-5.539 -9.868,-10.953 -10.032,-11.181 -0.325,-0.452 -0.224,-1.081 0.227,-1.407 0.455,-0.328 1.082,-0.224 1.408,0.226 0.038,0.055 3.988,5.49 9.774,10.89 0.408,0.379 0.428,1.017 0.049,1.424 -0.179,0.192 -0.416,0.296 -0.658,0.316 z"
   style="clip-rule:evenodd;fill:#764336;fill-rule:evenodd" />
				<path
   id="path166"
   d="m 609.401,130.199 -0.339,3.914 c 0,0 -11.05,-1.394 -13.448,-1.879 -1.739,-3.713 -0.268,-7.728 -0.268,-7.728 z"
   style="clip-rule:evenodd;fill:#534548;fill-rule:evenodd" />
				<path
   id="path168"
   d="m 564.843,132.123 0.796,2.808 c 0,0 6.225,-2.629 11.117,-3.753 -0.881,-2.627 -1.454,-5.614 -1.454,-5.614 z"
   style="clip-rule:evenodd;fill:#534548;fill-rule:evenodd" />
				<polygon
   id="polygon170"
   points="579.097,157.703 581.173,141.058 583.175,141.297 580.913,159.503 574.293,160.351 575.501,169.863 573.503,170.116 572.04,158.609 "
   style="clip-rule:evenodd;fill:#d5823e;fill-rule:evenodd" />
				<path
   id="path172"
   d="m 569.458,178.457 c 0,0 17.255,7.633 35.808,-7.039 -2.862,9.796 -12.563,17.835 -21.638,18.367 -5.322,0.312 -13.879,-5.227 -14.17,-11.328 z"
   style="clip-rule:evenodd;fill:#fefefe;fill-rule:evenodd" />
				<path
   id="path174"
   d="m 584.671,181.631 c -11.319,0.894 -16.128,-2.796 -16.333,-2.957 l 1.025,-1.295 c 0.044,0.033 4.809,3.612 15.985,2.534 10.225,-0.983 19.574,-9.794 19.667,-9.883 l 1.142,1.195 c -0.399,0.38 -9.85,9.295 -20.651,10.333 -0.281,0.027 -0.56,0.052 -0.835,0.073 z"
   style="clip-rule:evenodd;fill:#d99867;fill-rule:evenodd" />
				<path
   id="path176"
   d="m 552.635,105.384 c 0.819,1.358 13.173,12.309 13.173,12.309 l 52.901,0.99 6.036,11.007 0.932,26.337 5,-2.117 5.015,-38.291 -7.692,-15.612 -60.046,-11.479 -5.405,-3.019 -6.671,6.412 z"
   style="clip-rule:evenodd;fill:#534548;fill-rule:evenodd" />
				<polygon
   id="polygon178"
   points="578.069,145.719 565.733,145.832 565.373,141.267 578.549,139.079 "
   style="clip-rule:evenodd;fill:#fefefe;fill-rule:evenodd" />
				<polygon
   id="polygon180"
   points="610.294,141.165 609.415,146.401 595.477,146.21 595.726,139.684 599.643,138.992 "
   style="clip-rule:evenodd;fill:#fefefe;fill-rule:evenodd" />
				<linearGradient
   y2="161.56619"
   x2="623.50568"
   y1="158.7106"
   x1="631.88171"
   gradientUnits="userSpaceOnUse"
   id="SVGID_5_">
					<stop
   id="stop182"
   style="stop-color:#F9B776"
   offset="0" />
					<stop
   id="stop184"
   style="stop-color:#F7CF7A"
   offset="1" />
				</linearGradient>
				<path
   id="path187"
   d="m 622.622,164.593 c 0.612,4.284 1.003,5.146 4.955,4.585 3.955,-0.562 8.829,-7.944 8.221,-12.228 -0.609,-4.283 -2.76,-6.825 -6.715,-6.264 -1.482,0.211 -3.904,1.458 -5.518,2.828 -1.592,3.096 -1.321,8.403 -0.943,11.079 z"
   style="clip-rule:evenodd;fill:url(#SVGID_5_);fill-rule:evenodd" />
				<path
   id="path189"
   d="m 607.839,174.127 -1.652,0.049 -0.089,-3.024 c -1.724,-0.134 -4.205,-1.026 -5.029,-3.824 l 1.585,-0.468 c 0.848,2.879 4.046,2.66 4.182,2.649 l 0.866,-0.068 z"
   style="clip-rule:evenodd;fill:#d99867;fill-rule:evenodd" />
				<path
   id="path191"
   d="m 567.248,179.435 -0.525,-1.567 0.262,0.784 -0.266,-0.782 c 0.016,-0.005 1.69,-0.599 1.719,-1.904 l 1.651,0.035 c -0.052,2.469 -2.727,3.397 -2.841,3.434 z"
   style="clip-rule:evenodd;fill:#d99867;fill-rule:evenodd" />
				<linearGradient
   y2="145.59579"
   x2="572.17822"
   y1="136.51961"
   x1="573.25848"
   gradientUnits="userSpaceOnUse"
   id="SVGID_6_">
					<stop
   id="stop193"
   style="stop-color:#2D596D"
   offset="0" />
					<stop
   id="stop195"
   style="stop-color:#2D596D"
   offset="0.17" />
					<stop
   id="stop197"
   style="stop-color:#4F9F90"
   offset="1" />
				</linearGradient>
				<path
   id="path200"
   d="m 576.143,137.69 c -2.666,0.784 -5.188,1.558 -7.623,2.223 -0.172,0.532 -0.248,1.106 -0.202,1.696 0.191,2.416 2.304,4.22 4.721,4.029 2.416,-0.19 4.22,-2.304 4.029,-4.72 -0.1,-1.272 0.006,-2.498 -0.925,-3.228 z"
   style="clip-rule:evenodd;fill:url(#SVGID_6_);fill-rule:evenodd" />
				<linearGradient
   y2="144.3851"
   x2="601.53418"
   y1="138.4205"
   x1="604.50098"
   gradientUnits="userSpaceOnUse"
   id="SVGID_7_">
					<stop
   id="stop202"
   style="stop-color:#2D596D"
   offset="0" />
					<stop
   id="stop204"
   style="stop-color:#2D596D"
   offset="0.17" />
					<stop
   id="stop206"
   style="stop-color:#4F9F90"
   offset="1" />
				</linearGradient>
				<path
   id="path209"
   d="m 607.47,139.952 c -2.471,-0.379 -5.551,-0.794 -8.07,-0.96 -0.337,0.446 -0.597,0.962 -0.745,1.537 -0.609,2.345 0.797,4.741 3.144,5.351 2.344,0.609 4.74,-0.797 5.35,-3.143 0.321,-1.236 0.423,-1.501 0.321,-2.785 z"
   style="clip-rule:evenodd;fill:url(#SVGID_7_);fill-rule:evenodd" />
				<polygon
   id="polygon211"
   points="578.726,139.495 575.531,139.03 564.457,141.483 576.767,136.492 "
   style="clip-rule:evenodd;fill:#534548;fill-rule:evenodd" />
				<polygon
   id="polygon213"
   points="595.382,140.477 598.464,139.516 609.787,140.201 598.273,137.09 "
   style="clip-rule:evenodd;fill:#534548;fill-rule:evenodd" />
				<path
   id="path215"
   d="m 585.327,199.531 c -2.275,0.18 -4.179,-1.001 -4.286,-1.069 l 0.588,-0.931 c 0.031,0.018 2.979,1.834 5.57,0.274 l 0.569,0.944 c -0.82,0.494 -1.653,0.72 -2.441,0.782 z"
   style="clip-rule:evenodd;fill:#da9981;fill-rule:evenodd" />
				<path
   id="path217"
   d="m 593.135,118.383 -0.22,-0.028 c -20.708,-7.002 -25.454,-29.493 -25.501,-29.72 -0.059,-0.299 0.133,-0.588 0.431,-0.648 0.292,-0.064 0.589,0.131 0.648,0.431 0.045,0.22 4.679,22.098 24.774,28.894 0.288,0.097 0.442,0.41 0.345,0.698 -0.072,0.215 -0.264,0.356 -0.477,0.373 z"
   style="clip-rule:evenodd;fill:#625d5e;fill-rule:evenodd" />
				<path
   id="path219"
   d="m 570.378,118.054 c -5.649,-3.72 -11.056,-20.885 -11.456,-29.693 l 1.099,-0.051 c 0.384,8.392 5.665,25.335 10.963,28.824 z"
   style="clip-rule:evenodd;fill:#625d5e;fill-rule:evenodd" />
				<linearGradient
   y2="160.1615"
   x2="626.61511"
   y1="158.51311"
   x1="631.8197"
   gradientUnits="userSpaceOnUse"
   id="SVGID_8_">
					<stop
   id="stop221"
   style="stop-color:#E98F55"
   offset="0" />
					<stop
   id="stop223"
   style="stop-color:#F6CE85"
   offset="0.99" />
					<stop
   id="stop225"
   style="stop-color:#F6CE85"
   offset="1" />
				</linearGradient>
				<path
   id="path228"
   d="m 627.327,164.796 c 0,0 5.355,-1.997 5.188,-7.012 -0.211,-6.3 -7.813,-1.393 -7.813,-1.393 z"
   style="clip-rule:evenodd;fill:url(#SVGID_8_);fill-rule:evenodd" />
			</g>
			<linearGradient
   y2="380.4519"
   x2="538.72998"
   y1="380.4519"
   x1="610.57422"
   gradientUnits="userSpaceOnUse"
   id="SVGID_9_">
				<stop
   id="stop232"
   style="stop-color:#F9B776"
   offset="0" />
				<stop
   id="stop234"
   style="stop-color:#F7CF7A"
   offset="1" />
			</linearGradient>
			<polygon
   id="polygon237"
   points="588.425,389.879 577.544,389.822 554.632,389.858 538.73,389.267 541.982,379.769 559.399,366.836 569.032,368.542 590.572,371.018 610.457,373.361 610.574,394.068 "
   style="clip-rule:evenodd;fill:url(#SVGID_9_);fill-rule:evenodd" />
		</g>
	</g>
	<g
   id="g255">
		<path
   id="path243"
   d="m 571.803,406.446 c 12.407,0.081 14.624,-5.085 14.959,-12.398 l 0.2,-4.347 -144.691,0.231 c -10.515,0.011 -16.126,5.886 -16.52,13.621 l -0.165,3.266 z"
   style="clip-rule:evenodd;fill:#444849;fill-rule:evenodd" />
		<rect
   id="rect245"
   height="5.151"
   width="17.742001"
   style="clip-rule:evenodd;fill:#d8dada;fill-rule:evenodd"
   y="395.81201"
   x="470.45401" />
		<path
   id="path247"
   d="m 454.946,406.81 -6.877,0.01 -148.314,0.011 C 289.238,406.81 283.6,400.952 283.233,393.207 l -0.167,-3.563 h 159.146 c 0.412,8.743 2.709,15.314 12.734,17.166 z"
   style="clip-rule:evenodd;fill:#898989;fill-rule:evenodd" />
		<path
   id="path249"
   d="m 446.367,264.242 10.015,113.121 c 0.786,8.879 -2.56,15.948 -15.045,15.921 l -156.829,-0.368 c -10.577,-0.024 -14.871,-7.315 -16.615,-16.599 l -17.956,-95.359 c -1.775,-9.418 2.867,-13.955 11.058,-14.83 L 423.57,247.403 c 11.66,-1.245 21.476,1.875 22.797,16.839 z"
   style="clip-rule:evenodd;fill:#a8a8a8;fill-rule:evenodd" />
		<path
   id="path251"
   d="m 437.981,265.003 9.958,112.456 c 0.779,8.824 -2.546,15.853 -14.96,15.825 l -155.827,-0.366 c -10.517,-0.022 -14.774,-7.273 -16.519,-16.5 l -17.388,-92.051 c -2.189,-11.581 4.648,-16.864 14.798,-17.945 l 159.399,-18.386 c 10.993,-1.178 19.416,4.25 20.539,16.967 z"
   style="clip-rule:evenodd;fill:#d8dada;fill-rule:evenodd" />
		<path
   id="path253"
   d="m 341.037,321.479 c -6.771,0 -12.29,-4.626 -12.29,-10.299 0,-5.673 5.519,-10.3 12.29,-10.3 6.769,0 12.292,4.627 12.292,10.3 0,5.673 -5.523,10.299 -12.292,10.299 z"
   style="clip-rule:evenodd;fill:#a8a8a8;fill-rule:evenodd" />
	</g>
	<g
   id="g267">
		<rect
   id="rect257"
   height="354.43201"
   width="28.084"
   style="clip-rule:evenodd;fill:#b4b5b6;fill-rule:evenodd"
   y="427.42099"
   x="235.589" />
		<rect
   id="rect259"
   height="35.865002"
   width="28.087"
   style="clip-rule:evenodd;fill:#b4b5b6;fill-rule:evenodd"
   y="427.41901"
   x="802.71899" />
		<rect
   id="rect261"
   height="21.273001"
   width="712.52301"
   style="clip-rule:evenodd;fill:#5b4d3b;fill-rule:evenodd"
   y="406.54901"
   x="173.077" />
		<rect
   id="rect263"
   height="322.47299"
   width="137.713"
   style="clip-rule:evenodd;fill:#afa18a;fill-rule:evenodd"
   y="462.49301"
   x="747.90399" />
		<path
   id="path265"
   d="m 869.778,784.969 h -3.059 c 1.569,-19.164 0.495,-38.785 1.438,-57.645 1.776,-35.476 3.25,-71.02 3.468,-106.544 0.308,-52.904 -5.818,-105.517 -8.69,-158.284 h 3.309 c 1.121,21.385 2.892,42.743 4.57,64.092 2.758,34.981 4.746,69.876 4.313,104.975 -0.419,34.732 -2.705,69.386 -3.687,104.093 -0.468,16.474 -0.034,33.018 -1.662,49.313 z m -82.286,0 v 0 h -3.871 c 0.83,-11.531 2.07,-23.033 4.45,-34.414 3.613,-17.248 9.45,-34.128 13.63,-51.254 4.313,-17.638 7.7,-35.485 9.383,-53.539 1.259,-13.621 1.136,-27.36 1.765,-41.023 0.621,-13.694 1.438,-27.371 2.262,-41.053 1.796,-29.664 3.739,-59.318 4.886,-89.01 0.154,-4.061 0.297,-8.122 0.422,-12.181 h 3.997 c -1.334,50.457 -5.989,100.793 -7.98,151.225 -0.716,17.923 -1.295,35.616 -4.094,53.385 -3.326,21.036 -8.766,41.725 -14.455,62.265 -2.789,10.016 -5.731,19.892 -7.527,30.135 -1.472,8.428 -2.278,16.947 -2.868,25.464 z m -19.386,0 v 0 c 4.4,-26.817 6.727,-53.992 6.265,-81.027 -0.344,-21.5 -2.358,-43.064 -7.048,-64.111 -3.888,-17.428 -6.319,-33.667 -1.939,-51.31 5.779,-23.326 18.877,-43.803 29.869,-65.037 10.12,-19.581 17.444,-39.372 18.798,-60.987 h -4.095 c -0.85,12.203 -3.032,24.258 -7.543,35.971 -16.692,43.308 -53.765,83.318 -41.185,132.681 12.933,50.787 10.547,102.662 2.635,153.82 z m 60.297,0 v 0 c 0.313,-14.192 -0.403,-28.523 0.223,-42.544 1.438,-32.246 6.688,-64.265 8.478,-96.505 0.895,-16.287 1.239,-32.694 -0.263,-48.955 -0.895,-9.56 -1.362,-18.843 -0.895,-28.437 1.429,-29.273 2.31,-58.372 2.31,-87.684 0,-6.103 0.07,-12.217 0.148,-18.348 h -3.891 c -0.039,5.393 -0.081,10.79 -0.081,16.183 0,29.642 -0.828,59.066 -2.271,88.663 -0.467,9.356 -0.213,18.423 0.646,27.734 1.505,16.236 1.446,32.565 0.54,48.846 -1.793,32.321 -7.06,64.439 -8.478,96.771 -0.635,14.474 0.154,29.432 -0.103,44.275 h 3.637 z M 747.904,562.481 v 0 6.332 c 4.38,-5.938 14.614,-24.951 17.794,-29.398 10.31,-14.41 18.701,-30.204 25.03,-46.477 3.862,-9.907 6.699,-20.096 8.754,-30.442 h -4.531 c -2.417,12.043 -5.91,23.875 -10.93,35.39 -5.787,13.299 -12.889,26.602 -21.469,38.836 -2.21,3.14 -11.655,21.516 -14.648,25.759 z m 0,-53.964 v 0 c 3.502,-8.953 18.681,-30.89 22.7,-38.964 1.166,-2.338 2.199,-4.69 3.099,-7.057 h 4.749 c -4.609,12.225 -14.208,23.95 -21.836,38.441 -3.619,6.883 -6.091,15.006 -8.712,22.949 z m 37.879,188.452 v 0 c 3.787,-21.119 6.073,-41.892 9.686,-62.75 2.109,-12.25 2.294,-36.265 3.557,-56.599 0.188,-3.043 3.004,-14.801 -5.227,-6.369 -3.958,4.061 -10.55,19.562 -11.141,31.65 -0.4,8.321 1.027,30.657 1.561,28.73 0.643,-2.307 0.87,-23.74 2.103,-28.94 1.809,-7.583 4.05,-16.256 6.125,-20.144 4.369,-8.217 2.372,2.545 2.338,2.859 -1.633,16.963 -2.539,34.83 -4.095,44.482 -1.841,11.4 -5.483,54.296 -4.907,67.081 z m 64.682,88 v 0 h -0.66 -1.186 -3.348 c 1.693,-10.201 2.943,-20.473 3.871,-30.842 1.745,-19.492 4.419,-38.888 5.879,-58.411 1.449,-19.464 1.841,-38.998 0.837,-58.482 -1.315,-12.564 -3.208,-25.074 -4.604,-37.627 -5.085,-45.545 -6.928,-91.326 -6.85,-137.112 h 3.225 c -0.006,13.579 0.148,27.161 0.503,40.74 0.912,35.376 3.301,70.712 7.496,105.87 1.642,9.21 3.191,18.426 3.947,27.734 0.469,5.901 0.752,11.812 0.864,17.732 0.191,3.097 0.331,6.204 0.417,9.32 0.495,17.912 -0.417,35.829 -1.933,53.682 -1.911,22.592 -5.328,44.981 -8.458,67.396 z"
   style="clip-rule:evenodd;fill:#bcb19e;fill-rule:evenodd" />
	</g>
	<g
   id="g271">
		<path
   id="path269"
   d="m 686.356,532.79 c -1.413,0 -2.748,-0.851 -3.298,-2.245 L 655.759,461.25 c -0.717,-1.821 0.178,-3.878 1.998,-4.596 1.824,-0.718 3.878,0.178 4.596,1.998 l 27.299,69.295 c 0.717,1.821 -0.178,3.878 -1.998,4.596 -0.427,0.168 -0.867,0.247 -1.298,0.247 z"
   style="fill:#878787" />
	</g>
	<g
   id="g275">
		<path
   id="path273"
   d="m 615.392,490.09 c -0.648,0 -1.307,-0.148 -1.925,-0.463 -2.093,-1.064 -2.927,-3.624 -1.862,-5.718 7.463,-14.673 25.784,-26.733 54.457,-35.845 21.908,-6.961 45.739,-10.691 59.637,-11.301 2.372,-0.086 4.331,1.717 4.435,4.061 0.103,2.347 -1.716,4.332 -4.062,4.435 -12.905,0.565 -36.383,4.221 -57.435,10.91 -26.05,8.277 -43.15,19.203 -49.452,31.595 -0.751,1.477 -2.244,2.326 -3.793,2.326 z"
   style="fill:#878787" />
	</g>
	<g
   id="g295">
		<g
   id="g279">
			<path
   id="path277"
   d="m 232.321,409.551 c -0.652,0 -1.238,-0.452 -1.384,-1.115 L 192.344,232.174 c -0.141,-0.644 0.181,-1.3 0.776,-1.583 l 143.147,-68 c 0.707,-0.336 1.554,-0.035 1.889,0.672 0.336,0.707 0.035,1.553 -0.672,1.889 l -142.13,67.517 38.352,175.162 c 0.168,0.765 -0.316,1.52 -1.082,1.688 -0.101,0.021 -0.204,0.032 -0.303,0.032 z"
   style="fill:#444849" />
		</g>
		<g
   id="g283">
			<path
   id="path281"
   d="m 226.062,391.285 c -0.013,0 -0.025,-0.001 -0.038,-0.002 l -17.389,-1.13 c -0.256,-0.017 -0.469,-0.202 -0.519,-0.454 L 178.077,239.814 c -0.049,-0.243 0.065,-0.489 0.283,-0.608 l 14.422,-7.903 -4.254,-15.281 c -0.072,-0.261 0.049,-0.535 0.289,-0.658 l 104.621,-53.169 c 0.137,-0.069 0.298,-0.083 0.446,-0.028 0.146,0.052 0.265,0.161 0.328,0.303 l 7.439,16.635 c 0.128,0.286 0,0.621 -0.286,0.749 -0.283,0.127 -0.621,10e-4 -0.749,-0.286 l -7.195,-16.091 -103.676,52.688 4.25,15.268 c 0.071,0.254 -0.042,0.523 -0.273,0.649 l -14.451,7.918 29.872,149.051 16.955,1.102 c 0.313,0.02 0.549,0.29 0.528,0.602 -0.019,0.3 -0.268,0.53 -0.564,0.53 z"
   style="fill:#5d6b77" />
		</g>
		<path
   id="path285"
   d="m 321.858,179.751 50.513,-4.997 c 8.08,-5.685 5.745,-14.469 -1.567,-19.382 -14.209,-9.54 -40.399,-6.515 -52.234,5.899 -6.509,6.831 -5.353,14.391 3.288,18.48 z"
   style="clip-rule:evenodd;fill:#5d6b77;fill-rule:evenodd" />
		<path
   id="path287"
   d="m 197.62,226.711 2.853,5.853 c 0.63,1.29 0.088,2.854 -1.201,3.484 l -5.854,2.853 c -1.289,0.63 -2.854,0.09 -3.482,-1.198 l -2.854,-5.855 c -0.63,-1.29 -0.088,-2.854 1.198,-3.483 l 5.856,-2.854 c 1.289,-0.629 2.854,-0.09 3.484,1.2 z"
   style="clip-rule:evenodd;fill:#5d6b77;fill-rule:evenodd" />
		<path
   id="path289"
   d="m 222.77,402.061 16.805,0.057 c 3.702,0.01 6.71,3.046 6.701,6.748 l -0.057,16.806 c -0.01,3.702 -3.043,6.712 -6.74,6.702 l -16.811,-0.056 c -3.702,-0.01 -6.711,-3.046 -6.702,-6.741 l 0.058,-16.813 c 0.01,-3.703 3.044,-6.713 6.746,-6.703 z"
   style="clip-rule:evenodd;fill:#5d6b77;fill-rule:evenodd" />
		<path
   id="path291"
   d="m 233.136,384.314 1.397,6.36 c 0.309,1.401 -0.586,2.795 -1.987,3.103 l -6.36,1.397 c -1.401,0.309 -2.795,-0.584 -3.103,-1.983 l -1.397,-6.362 c -0.309,-1.401 0.586,-2.795 1.983,-3.103 l 6.363,-1.397 c 1.401,-0.309 2.796,0.584 3.104,1.985 z"
   style="clip-rule:evenodd;fill:#5d6b77;fill-rule:evenodd" />
		<path
   id="path293"
   d="m 304.982,176.77 2.034,4.624 c 0.449,1.018 -0.018,2.215 -1.037,2.664 l -4.624,2.034 c -1.018,0.449 -2.215,-0.017 -2.663,-1.034 l -2.035,-4.625 c -0.449,-1.019 0.018,-2.215 1.034,-2.663 l 4.627,-2.035 c 1.017,-0.449 2.214,0.017 2.664,1.035 z"
   style="clip-rule:evenodd;fill:#5d6b77;fill-rule:evenodd" />
	</g>
</g>
</svg>