<?xml version="1.0" encoding="iso-8859-1"?>
<!-- Generator: Adobe Illustrator 19.0.0, SVG Export Plug-In . SVG Version: 6.00 Build 0)  -->
<svg version="1.1" id="Capa_1" xmlns="http://www.w3.org/2000/svg" xmlns:xlink="http://www.w3.org/1999/xlink" x="0px" y="0px"
	 viewBox="0 0 512 512" style="enable-background:new 0 0 512 512;" xml:space="preserve">
<path style="fill:#2E9DE3;" d="M185.544,229.494l47.715,15.812c13.242,4.388,22.182,16.768,22.182,30.718v62.258H64.028v-62.258
	c0-13.95,8.94-26.33,22.182-30.718l47.715-15.812"/>
<path style="fill:#FFCDAC;" d="M159.733,237.034L159.733,237.034c-26.796,0-48.518-21.722-48.518-48.518v-12.657
	c0-26.796,21.722-48.518,48.518-48.518l0,0c26.796,0,48.518,21.722,48.518,48.518v12.657
	C208.251,215.311,186.529,237.034,159.733,237.034z"/>
<path style="fill:#62CD4D;" d="M378.103,229.494l47.715,15.812C439.06,249.694,448,262.074,448,276.024v62.258H256.589v-62.258
	c0-13.95,8.94-26.33,22.182-30.718l47.715-15.812"/>
<path style="fill:#FFCDAC;" d="M352.293,237.034L352.293,237.034c-26.796,0-48.518-21.722-48.518-48.518v-12.657
	c0-26.796,21.722-48.518,48.518-48.518l0,0c26.796,0,48.518,21.722,48.518,48.518v12.657
	C400.811,215.311,379.089,237.034,352.293,237.034z"/>
<path style="fill:#FF5D5D;" d="M285.888,260.453l55.257,18.31c15.335,5.081,25.688,19.419,25.688,35.574v72.099H145.167v-72.099
	c0-16.156,10.352-30.492,25.688-35.574l55.257-18.31"/>
<path style="fill:#FFCDAC;" d="M255.999,269.185L255.999,269.185c-31.031,0-56.186-25.155-56.186-56.186v-14.658
	c0-31.031,25.155-56.186,56.186-56.186l0,0c31.031,0,56.186,25.155,56.186,56.186v14.658
	C312.185,244.03,287.03,269.185,255.999,269.185z"/>
<path d="M457.968,275.809c0-18.344-11.699-34.546-29.112-40.314l-31.467-10.427c8.263-10.113,13.229-23.019,13.229-37.067v-12.7
	c0-32.357-26.325-58.682-58.683-58.682c-22.624,0-42.531,12.767-52.301,32.022c-11.659-10.248-26.928-16.483-43.634-16.483
	s-31.975,6.235-43.634,16.483c-9.77-19.255-29.677-32.022-52.301-32.022c-32.358,0-58.683,26.325-58.683,58.682V188
	c0,14.048,4.966,26.954,13.229,37.067l-31.467,10.427c-17.413,5.769-29.112,21.971-29.112,40.314v62.471
	c0,5.521,4.476,9.998,9.998,9.998h71.139v38.157c0,5.521,4.476,9.998,9.998,9.998h221.666c5.522,0,9.998-4.477,9.998-9.998v-38.157
	h71.139c5.522,0,9.998-4.477,9.998-9.998v-62.471H457.968z M351.935,136.614c21.332,0,38.686,17.353,38.686,38.685v12.7
	c0,13.381-6.83,25.194-17.185,32.143c-0.635,0.312-1.236,0.689-1.794,1.129c-5.776,3.434-12.514,5.414-19.707,5.414
	c-11.628,0-22.367-5.081-29.75-13.991V198.34c0-11.398-2.897-22.134-7.993-31.507C318.101,149.213,333.68,136.614,351.935,136.614z
	 M255.999,152.153c25.468,0,46.188,20.72,46.188,46.188v14.657c0,16.027-8.209,30.167-20.638,38.454
	c-0.683,0.329-1.326,0.736-1.92,1.212c-6.918,4.137-15,6.522-23.629,6.522c-8.631,0-16.713-2.386-23.631-6.523
	c-0.591-0.474-1.231-0.878-1.91-1.206c-12.434-8.286-20.646-22.429-20.646-38.459v-14.657
	C209.811,172.872,230.531,152.153,255.999,152.153z M121.377,175.3c0-21.332,17.354-38.685,38.686-38.685
	c18.255,0,33.833,12.599,37.743,30.219c-5.095,9.374-7.993,20.109-7.993,31.507v14.355c-7.385,8.91-18.122,13.991-29.751,13.991
	c-7.196,0-13.936-1.981-19.713-5.417c-0.553-0.434-1.148-0.809-1.776-1.118c-10.362-6.948-17.197-18.765-17.197-32.151
	L121.377,175.3L121.377,175.3z M74.026,328.282v-52.473c0-9.707,6.19-18.279,15.405-21.333l43.561-14.436
	c8.106,4.233,17.309,6.643,27.071,6.643c12.387,0,24.098-3.808,33.858-10.739c2.825,7.618,7.023,14.57,12.278,20.575l-38.49,12.755
	c-19.464,6.449-32.541,24.559-32.541,45.064v13.944H74.026z M356.833,376.438H155.164v-62.1c0-11.868,7.569-22.351,18.834-26.083
	l50.886-16.862c9.282,4.965,19.872,7.791,31.113,7.791c11.241,0,21.833-2.826,31.113-7.791l50.886,16.862
	c11.265,3.732,18.834,14.215,18.834,26.083v62.1H356.833z M437.971,328.282H376.83v-13.944c0-20.505-13.078-38.615-32.541-45.064
	l-38.49-12.755c5.255-6.006,9.454-12.957,12.278-20.575c9.76,6.932,21.471,10.739,33.858,10.739c9.761,0,18.964-2.409,27.07-6.643
	l43.562,14.436c9.214,3.054,15.404,11.626,15.404,21.333L437.971,328.282L437.971,328.282z"/>
<path d="M40.452,136.945c1.625,0.989,3.418,1.46,5.191,1.46c3.373,0,6.666-1.707,8.549-4.799l0.224-0.366
	c2.886-4.708,1.408-10.863-3.3-13.749c-4.708-2.885-10.864-1.408-13.749,3.301l-0.252,0.413
	C34.241,127.921,35.735,134.072,40.452,136.945z"/>
<path d="M428.972,416.975h-49.659c-4.043,0-7.69,2.437-9.238,6.172c-1.548,3.736-0.692,8.037,2.167,10.896l16.844,16.844
	c-92.605,63.339-219.892,52.012-299.94-28.037C19.8,353.504,0.491,250.699,39.957,160.942c2.223-5.055-0.074-10.955-5.128-13.178
	c-5.055-2.224-10.954,0.073-13.177,5.128C1.123,199.582-4.961,250.901,4.056,301.301c9.231,51.583,33.765,98.505,70.95,135.69
	c43.767,43.766,101.841,70.18,163.524,74.377c5.827,0.396,11.64,0.593,17.447,0.593c52.81-0.002,104.396-16.291,147.476-46.707
	l18.449,18.449c1.914,1.913,4.47,2.929,7.073,2.929c1.288,0,2.587-0.249,3.823-0.761c3.736-1.548,6.172-5.193,6.172-9.238v-49.659
	C438.971,421.452,434.495,416.975,428.972,416.975z M418.974,452.494l-15.522-15.522h15.522V452.494z"/>
<path d="M508.167,211.98c-9.049-52.093-33.662-99.458-71.177-136.972C393.224,31.241,335.15,4.827,273.467,0.631
	c-58.821-3.996-117.108,12.352-164.924,46.113L90.095,28.296c-2.86-2.86-7.16-3.714-10.896-2.168
	c-3.736,1.548-6.172,5.193-6.172,9.238v49.659c0,5.521,4.476,9.998,9.998,9.998h49.658c4.043,0,7.69-2.437,9.238-6.172
	c1.548-3.736,0.692-8.037-2.167-10.896L122.91,61.111C215.515-2.23,342.802,9.098,422.85,89.147
	c69.044,69.044,88.415,175.192,48.199,264.135c-2.275,5.031-0.041,10.954,4.991,13.229c1.337,0.605,2.736,0.892,4.113,0.892
	c3.807,0,7.446-2.188,9.117-5.882C510.479,314.616,517.013,262.906,508.167,211.98z M93.024,75.027V59.505l15.522,15.522
	L93.024,75.027L93.024,75.027z"/>
<path d="M470.858,376.308c-4.696-2.904-10.857-1.452-13.763,3.246l-0.306,0.495c-2.905,4.696-1.451,10.857,3.246,13.762
	c1.639,1.014,3.454,1.496,5.249,1.496c3.35,0,6.622-1.683,8.514-4.741l0.306-0.495C477.008,385.373,475.554,379.212,470.858,376.308
	z"/>
<g>
</g>
<g>
</g>
<g>
</g>
<g>
</g>
<g>
</g>
<g>
</g>
<g>
</g>
<g>
</g>
<g>
</g>
<g>
</g>
<g>
</g>
<g>
</g>
<g>
</g>
<g>
</g>
<g>
</g>
</svg>
