<?xml version="1.0" encoding="UTF-8" standalone="no"?>
<svg
   xmlns:dc="http://purl.org/dc/elements/1.1/"
   xmlns:cc="http://creativecommons.org/ns#"
   xmlns:rdf="http://www.w3.org/1999/02/22-rdf-syntax-ns#"
   xmlns:svg="http://www.w3.org/2000/svg"
   xmlns="http://www.w3.org/2000/svg"
   height="448"
   width="640"
   id="svg4"
   version="1.1"
   viewBox="0 0 640 448"
   role="img"
   class="svg-inline--fa fa-users fa-w-20"
   data-icon="users"
   data-prefix="fas"
   aria-hidden="true">
  <metadata
     id="metadata10">
    <rdf:RDF>
      <cc:Work
         rdf:about="">
        <dc:format>image/svg+xml</dc:format>
        <dc:type
           rdf:resource="http://purl.org/dc/dcmitype/StillImage" />
        <dc:title></dc:title>
      </cc:Work>
    </rdf:RDF>
  </metadata>
  <defs
     id="defs8" />
  <path
     style="fill:#de2b41;fill-opacity:1"
     id="path2"
     d="m 96,192 c 35.3,0 64,-28.7 64,-64 0,-35.3 -28.7,-64 -64,-64 -35.3,0 -64,28.7 -64,64 0,35.3 28.7,64 64,64 z m 448,0 c 35.3,0 64,-28.7 64,-64 0,-35.3 -28.7,-64 -64,-64 -35.3,0 -64,28.7 -64,64 0,35.3 28.7,64 64,64 z m 32,32 h -64 c -17.6,0 -33.5,7.1 -45.1,18.6 40.3,22.1 68.9,62 75.1,109.4 h 66 c 17.7,0 32,-14.3 32,-32 v -32 c 0,-35.3 -28.7,-64 -64,-64 z m -256,0 C 381.9,224 432,173.9 432,112 432,50.1 381.9,0 320,0 258.1,0 208,50.1 208,112 c 0,61.9 50.1,112 112,112 z m 76.8,32 h -8.3 c -20.8,10 -43.9,16 -68.5,16 -24.6,0 -47.6,-6 -68.5,-16 h -8.3 C 179.6,256 128,307.6 128,371.2 V 400 c 0,26.5 21.5,48 48,48 h 288 c 26.5,0 48,-21.5 48,-48 V 371.2 C 512,307.6 460.4,256 396.8,256 Z M 173.1,242.6 C 161.5,231.1 145.6,224 128,224 H 64 C 28.7,224 0,252.7 0,288 v 32 c 0,17.7 14.3,32 32,32 h 65.9 c 6.3,-47.4 34.9,-87.3 75.2,-109.4 z" />
</svg>
